<mxfile host="drawio-plugin" modified="2023-09-28T14:35:23.859Z" agent="5.0 (X11; Linux x86_64) AppleWebKit/537.36 (KHTML, like Gecko) Chrome/111.0.0.0 Safari/537.36" version="20.5.3" etag="rJHyY1C32mKss8f7xpec" type="embed"><diagram id="1Y-inil4V9IId6jrSB4I" name="Page-1"><mxGraphModel dx="536" dy="304" grid="1" gridSize="10" guides="1" tooltips="1" connect="1" arrows="1" fold="1" page="1" pageScale="1" pageWidth="827" pageHeight="1169" math="0" shadow="0"><root><mxCell id="0"/><mxCell id="1" parent="0"/></root></mxGraphModel></diagram></mxfile>